<svg width="216" height="127" viewBox="0 0 216 127" fill="none" xmlns="http://www.w3.org/2000/svg">
<g clip-path="url(#clip0_81_11)">
<path d="M190.714 40.4636C173.04 27.2393 145.842 20.9197 121.371 20.2066C122.212 13.3247 120.877 11.6106 114.09 7.57424C114.258 3.70934 110.181 3.14938 106.961 1.67061C104.983 -1.43319 101.384 0.157564 101.648 3.41222C97.4275 1.56319 94.9125 -0.768093 94.8591 4.50472C94.1916 2.51399 90.7529 -1.91316 88.6678 1.22493C87.5998 1.73689 83.0318 1.39863 82.69 2.86825C90.1495 30.1854 80.693 19.2626 58.2077 29.0792C55.5031 25.4017 55.9917 -5.90606 47.6752 10.1935C42.4957 19.6809 35.6049 30.0825 32.8443 40.283C17.3886 47.0529 1.49511 65.3123 0 80.2234C6.49303 110.445 46.2388 118.735 75.7645 126.076C114.707 129.546 165.858 123.668 198.625 101.349C224.506 80.26 221.155 56.3117 190.714 40.4659V40.4636ZM137.283 21.8453H137.793V22.0602H137.283V21.8453ZM140.062 41.5127L142.15 44.4405L141.274 44.6782L141.01 44.2257C139.875 44.9662 138.818 44.8885 137.678 45.1125C137.061 45.2336 136.757 45.6998 135.924 45.5376C135.764 45.5056 135.748 45.2359 135.638 45.1833C135.417 45.0782 135.104 45.1239 135.027 45.0713C134.981 45.0416 135.155 44.7605 134.989 44.5571C134.103 43.4874 133.334 42.4429 132.675 41.259L138.121 39.8671L140.062 41.5127ZM139.333 37.1998V36.985H139.843V37.1998H139.333ZM156.919 43.5285C158.599 44.5136 160.534 44.0725 161.023 46.3398C161.191 47.1238 161.082 47.5946 160.457 48.0517C160.225 48.2208 160.353 48.5705 159.603 48.3717C159.306 47.7386 158.775 46.6506 158.305 46.141C157.389 45.149 154.965 43.556 154.399 42.404C154.266 42.1298 154.127 41.9012 154.199 41.5904C155.576 41.3618 155.851 42.9 156.919 43.5285ZM155.993 40.9344H156.503L155.993 41.371V40.9344ZM174.004 63.0336C174.223 63.2165 174.623 63.1867 174.781 63.2942C175.018 63.4564 175.742 66.7134 175.736 67.1636C175.731 67.4996 175.662 67.8379 175.216 67.9202C175.349 67.0356 173.948 66.7797 173.28 66.174C172.994 65.9157 172.239 64.9923 172.175 64.6861C172.068 64.1673 172.533 61.3674 172.639 60.5606C172.687 60.1858 172.589 59.8384 173.034 59.5824C174.223 60.7618 172.444 61.7285 174.001 63.0313L174.004 63.0336ZM175.747 72.2307C175.365 72.8136 175.686 73.5175 175.552 74.0203C175.333 74.8477 174.591 75.8442 174.26 76.6488C174.078 77.0944 174.388 77.8327 173.678 78.0132C173.678 76.2922 170.282 73.177 170.082 71.9611C170.015 71.5451 170.907 69.2641 171.235 69.2435L175.742 72.2285L175.747 72.2307ZM181.869 56.8306C182.339 56.2889 183.185 56.458 183.164 55.8546H183.412C183.249 56.5723 184.17 56.1609 184.408 56.3163C184.248 57.13 185.22 57.3768 185.356 57.8042C185.783 59.1527 184.755 60.2909 185.468 61.5571C183.428 61.02 181.559 60.6703 181.396 63.061C182.827 64.261 183.14 63.2713 184.034 63.3102C184.533 63.3307 185.115 63.8473 185.724 63.7581C184.966 64.7866 183.909 67.2368 184.301 68.3727C184.966 70.2926 186.392 69.4264 187.895 69.6846C189.577 69.9726 189.417 73.1701 190.116 74.2558C190.805 74.1118 191.504 74.4203 192.206 74.242C193.832 73.8329 191.982 72.9141 191.678 72.3702C191.277 71.6525 191.459 70.9188 191.165 70.176C191.112 70.0389 189.622 68.2744 189.51 68.1944C188.939 67.7853 187.23 68.2104 186.683 67.2116C186.02 66.0026 187.542 65.0289 187.262 63.7536C188.319 64.0713 191.013 64.341 190.541 62.8279C190.204 61.7491 190.18 62.0371 190.207 60.7778C190.212 60.4943 189.473 60.4052 190.356 59.9298C191.475 59.3287 193.742 59.3584 194.919 59.8292C195.303 61.18 193.931 63.157 195.333 64.2015C195.57 64.3798 195.984 64.3432 196.246 64.5649C196.566 64.8392 198.024 67.8242 198.011 68.231C197.989 68.8572 197.239 69.6618 197.741 70.4023C199.348 70.9188 199.909 71.1405 200.074 72.745C199.367 72.7061 198.326 72.953 198.272 73.6204H197.899C197.405 72.6696 196.104 71.9085 194.948 71.6479C196.593 70.432 195.029 68.4984 193.926 67.3671L194.449 66.9191C194.174 66.0643 194.003 65.0769 192.882 64.7432C191.697 64.3889 191.795 65.0243 191.085 65.3832C190.063 65.8974 189.425 65.7489 189.131 67.1591C189.734 68.1784 192.084 68.1259 192.762 68.8024C193.173 69.2115 193.208 70.0709 193.464 70.6148C193.605 70.9165 194.107 71.1565 194.161 71.3508C194.249 71.6776 193.584 71.8993 193.459 72.2422C192.837 73.9472 194.687 73.5815 195.597 74.274C196.371 74.8637 196.484 76.5733 197.578 76.4453C199.108 76.2648 198.2 75.01 198.28 74.9414L200.734 75.5882C200.221 77.291 199.741 78.6212 200.536 80.3605C200.761 80.8542 201.551 81.3502 201.596 81.4713C201.652 81.6176 201.919 83.3912 201.853 83.4735C200.646 84.1089 198.521 83.5946 197.41 84.1774C196.919 84.4357 196.574 85.2905 196.112 85.6996C195.613 86.1407 194.964 86.3739 194.436 86.8973C193.939 87.3909 192.89 89.4319 192.644 89.5417L190.201 89.2034C189.924 87.3589 188.493 85.871 187.598 84.1957C186.608 82.333 183.813 77.2339 183.679 75.4808C183.615 74.6352 183.436 74.0043 184.699 74.1529C184.958 75.1677 186.253 75.4351 186.755 76.1391C187.104 76.6305 187.281 78.2966 188.405 78.0087C189.104 77.8304 188.805 75.5654 188.56 75.0329C188.277 74.4203 187.63 74.1986 187.291 73.7049C186.84 73.0467 186.696 71.8742 186.341 71.2274C185.46 69.6183 182.427 69.4492 180.603 69.6663C180.024 67.9293 179.463 66.19 178.956 64.4415C178.873 64.1535 179.111 63.8176 179.004 63.4861C178.612 62.2588 177.042 60.9126 177.779 59.5801C178.091 59.3858 179.084 60.876 180.449 59.123C180.894 58.5493 181.404 57.3631 181.869 56.8283V56.8306ZM181.623 56.2889V56.074H182.133V56.2889H181.623ZM183.415 61.9937H182.905L183.03 61.5571L183.415 61.9937ZM186.234 61.9982L187.524 62.3297C187.833 62.4096 187.545 63.0656 187.513 63.093C187.147 63.3924 186.271 62.2634 186.234 62.0005V61.9982ZM177.191 97.9297C177.733 95.6236 186.466 92.8832 186.466 92.8832C189.077 98.2863 176.158 102.341 177.191 97.9297ZM184.696 98.8599V99.0748H184.186V98.8599H184.696ZM183.927 100.615V100.83H182.648V100.615H183.927ZM182.905 99.2942V99.0793H183.415V99.2942H182.905ZM182.39 100.835V101.049H181.111V100.835H182.39ZM185.468 91.617C183.981 93.2489 177.392 96.8783 174.764 95.9527L174.281 93.1894C174.118 92.2546 174.93 91.3998 176.033 91.3564C179.007 91.2398 183.61 91.7061 185.465 91.617H185.468ZM180.852 71.2114L183.041 71.6411L183.156 73.6227C182.67 73.6684 183.017 73.0467 182.662 72.841C181.989 72.4502 180.47 73.0558 180.852 71.2114ZM180.852 73.6272V74.0638L180.342 73.6272H180.852ZM180.339 78.9526C180.595 79.4394 181.575 81.5993 181.749 82.0404C181.917 82.4701 185.22 87.7955 185.123 88.3052C183.551 88.7417 177.608 83.7477 176.732 82.6232L180.336 78.9526H180.339ZM179.608 86.351C179.842 86.4698 184.322 89.7291 184.186 90.3005C182.395 90.0582 176.22 90.5496 174.554 90.2753C173.149 90.0445 174.724 84.6665 176.241 84.5911C177.135 84.5477 178.815 85.951 179.608 86.3533V86.351ZM163.936 85.4711C164.496 84.8517 165.177 84.3557 165.223 83.4986C166.752 83.5512 167.38 84.6277 166.461 85.6722L163.936 85.4711ZM165.217 87.8892V88.2137L164.707 88.5452V87.8892H165.217ZM162.144 92.3849L163.311 91.8478C163.85 91.7609 163.605 91.9095 163.693 92.1632C163.941 92.8877 163.77 93.9185 163.936 94.691H163.169C163.856 93.5048 163.306 92.9746 162.144 92.3872V92.3849ZM90.3231 110.288C89.119 110.61 87.2608 110.871 85.8217 110.868C83.5978 110.864 81.8544 110.523 79.7612 109.854C79.0457 108.868 80.6076 108.434 81.534 108.505L81.7903 109.17L81.6621 108.295C82.5058 108.251 83.7579 108.231 84.5375 108.011C85.1703 107.833 85.5921 107.321 86.4171 107.207C88.3714 106.937 92.5417 106.8 94.5601 106.839C94.9606 106.846 97.5797 107.154 97.7479 107.246C97.8894 107.321 97.9161 107.637 98.0629 107.742C99.0454 108.448 98.4607 108.148 98.9012 108.759C99.6381 109.778 102.938 109.689 104.345 109.828C104.834 109.876 105.095 109.627 104.983 110.263C104.067 109.904 103.453 110.48 102.81 110.505C102.263 110.528 100.49 110.537 99.9745 110.509C99.5153 110.484 99.6434 110.1 99.4192 110.052C97.0964 109.554 92.5444 109.689 90.3177 110.285L90.3231 110.288ZM92.6832 112.244C92.6912 113.225 91.2281 112.571 90.3631 112.64L90.1228 112.681C90.1949 112.658 90.2777 112.646 90.3631 112.64L92.6832 112.244ZM70.7051 111.097C68.7695 111.325 68.0406 110.267 67.8404 108.827L66.5402 108.731C66.4761 108.311 66.7004 107.977 66.9113 107.623C68.6467 104.732 78.8935 100.115 82.415 98.076C84.2972 96.9858 84.1638 95.7973 86.5319 97.8726L86.022 98.4188L87.5571 98.2017C87.4129 99.0885 86.6627 99.3559 85.7657 99.0793C85.8538 99.6736 86.0754 100.032 85.5094 100.506L84.7431 100.174C84.0062 102.473 80.9172 103.888 78.9336 105.516C76.6615 107.378 73.9677 110.711 70.7051 111.095V111.097ZM74.7393 111.586V112.023H74.4883V111.586H74.7393ZM63.7235 108.295L64.2575 109.698C64.1961 110.039 66.089 111.197 65.1252 111.367C64.6847 111.444 62.183 110.329 62.1884 110.16C62.9813 109.609 63.9131 109.358 63.7235 108.297V108.295ZM63.4565 103.564C62.7998 103.982 60.1086 105.623 59.5346 105.605C58.9552 105.586 56.2934 104.071 55.9757 103.625C54.6221 101.735 57.0516 100.8 58.221 99.7422C61.1418 97.1 64.706 94.4922 68.2622 92.4969C69.218 91.9598 70.7719 91.5461 71.741 90.9016C74.4856 90.785 74.6405 94.2751 77.5613 94.2522C77.596 94.2911 77.07 94.9927 76.9739 95.0636C75.0943 96.4738 72.9238 97.8314 70.7612 99.0679C70.0697 99.4633 69.0338 99.5867 68.6654 99.797C67.0982 100.686 65.0264 102.567 63.4592 103.564H63.4565ZM48.671 100.576C48.0623 100.732 47.7393 100.551 47.2293 100.357C46.706 100.158 44.8532 99.0839 44.2605 98.7342C42.9362 97.9526 42.8107 96.9035 40.9125 97.5412L42.72 95.6898C48.1931 93.3563 53.127 90.2388 58.3972 87.5852L60.7654 87.9029L61.2753 87.2378L64.7407 88.7714C64.1641 89.1828 63.574 89.9302 63.0854 90.3096C62.757 90.5656 62.3032 90.593 62.0095 90.817C59.7428 92.5472 57.6069 94.3734 55.4284 96.1492C53.4687 97.7446 50.7001 99.0039 48.671 100.579V100.576ZM52.4408 104.56L51.5518 104.782L51.1673 104.453L52.0617 103.909C52.334 104.105 52.5263 104.24 52.4435 104.56H52.4408ZM45.5233 101.488C45.0454 101.548 44.6342 101.488 44.4981 101.054C44.976 100.995 45.3871 101.054 45.5233 101.488ZM38.7072 93.4637C38.1999 93.7174 37.9143 94.3025 36.8116 94.0305C37.3189 93.4043 36.5633 92.6432 36.598 92.4283C36.6247 92.2638 36.9852 92.0352 37.0599 91.7152C37.1454 91.3381 36.9638 90.9473 37.1374 90.5724C37.5538 89.6582 42.8802 86.8264 44.1617 86.1704C46.3403 85.0574 49.1516 84.326 50.7562 82.6004C50.9083 82.4381 50.9164 82.1707 50.911 81.9627C51.3649 81.5376 52.2406 83.4163 52.4542 83.6015C52.9721 84.0471 54.5847 84.0837 53.6129 85.0459C53.2925 85.3614 51.7467 86.2687 51.2474 86.5316C48.97 87.7315 46.4524 88.5429 44.1617 89.9005C42.2261 91.0478 40.7843 92.4238 38.7099 93.4637H38.7072ZM38.8594 95.7881C38.4963 96.2727 38.0264 96.6886 38.0878 97.3217C38.005 97.3972 36.8143 96.5172 37.0653 96.2269L38.8594 95.7881ZM53.0682 68.5967C53.2391 68.8892 52.9428 69.4401 53.685 69.7829L52.0564 71.8696C51.17 72.0502 48.7404 66.9602 47.9208 66.2723L49.496 63.7559C50.0807 65.0518 50.3343 65.6392 51.3302 66.6905C51.8641 67.2551 52.6117 67.8219 53.0682 68.5967ZM52.059 53.2194L53.685 55.4821C53.4714 55.6764 52.3127 57.5414 51.9336 57.1665C51.9362 55.7221 51.5091 54.625 52.059 53.2194ZM61.553 65.9568C61.8119 66.5922 64.367 67.5019 64.415 68.0276C63.4165 69.3349 63.0934 70.7474 61.7932 71.8696C61.1098 72.0182 58.5547 67.8996 57.8633 67.3328C58.2958 66.7134 60.1379 63.3079 61.1204 63.7833C61.9748 64.4347 61.3901 65.5683 61.5503 65.9568H61.553ZM65.1626 46.029C64.7701 46.0998 64.5432 46.7192 64.1107 46.6369C63.5019 46.237 63.526 45.533 63.2136 45.0279C63.0988 44.8428 62.3085 44.9342 62.8158 44.4382C63.1415 44.1205 64.3136 43.8211 64.7087 44.0382C64.7754 44.0748 65.0958 44.8542 65.5043 45.2222C66.0623 45.7273 66.7618 45.8415 67.1863 46.1958C69.493 48.1294 71.5088 50.6138 73.1026 52.9794C73.981 54.2822 75.38 54.5953 74.0771 56.2729C72.7823 57.9391 70.2219 55.233 69.3649 54.209C69.3916 53.9485 71.0709 53.7611 71.1617 52.8857C71.1857 52.664 70.7051 51.5509 70.6064 51.4983C69.8748 51.1098 68.6841 52.1817 68.0914 52.4811C67.4453 52.6297 65.3601 49.215 65.2587 48.6185C67.7229 48.8676 66.7698 45.7456 65.1626 46.0335V46.029ZM109.415 53.6993C109.93 53.8319 111.038 54.9198 111.727 54.9221C112.168 54.9221 113.58 54.4901 114.101 54.3302C115.406 53.9256 117.721 52.8811 119.013 52.6114C119.942 52.4171 121.413 52.4514 122.414 52.344C122.852 52.6594 120.895 53.5165 120.682 53.6011C118.949 54.2867 116.039 54.0696 116.861 56.2363C117.131 56.9471 119.486 56.9357 120.233 57.1757C121.742 57.6602 122.139 59.8704 121.867 61.0886C121.269 61.9 115.668 59.9892 114.987 59.4727C114.477 59.0864 114.907 57.8956 114.045 57.6465C113.417 57.466 112.301 57.6785 111.538 57.6008C111.118 57.5574 110.867 57.1757 110.28 57.1757C108.969 57.1757 106.678 58.0922 105.346 58.2408C104.804 58.3002 101.699 57.9871 101.656 57.7151L105.661 52.1383L106.783 52.3486L106.262 52.8948C106.876 54.5656 108.294 53.4136 109.418 53.7039L109.415 53.6993ZM107.039 49.4893V48.6139H107.29L107.549 49.4893H107.039ZM147.276 50.9109C147.177 51.2675 143.896 52.4537 143.343 52.3166C142.604 51.5646 142.118 50.8378 141.258 50.143C140.067 49.1785 138.351 48.5591 137.793 47.078C139.811 46.8906 141.568 46.1158 143.645 46.4541L147.276 50.9132V50.9109ZM145.228 45.9764V45.7616H145.738V45.9764H145.228ZM149.802 59.5275L148.808 61.5548C148.309 61.6394 148.192 61.3583 147.991 61.052C147.287 59.9755 147.14 58.0671 146.251 56.9494C147.102 56.426 149.433 58.9082 149.802 59.5253V59.5275ZM148.178 54.3187C148.758 54.1427 148.763 55.4341 148.814 55.6329C148.443 55.5712 147.396 54.5564 148.178 54.3187ZM161.629 68.359C160.879 68.9601 157.459 65.4152 158.938 65.5112C159.437 65.7694 162.048 68.0207 161.629 68.359ZM160.582 62.9353L160.606 60.6818L162.31 61.6394C163.757 62.7982 163.354 63.0656 162.91 64.6267L160.582 62.933V62.9353ZM159.408 93.5871L159.578 94.2476C159.33 94.4625 156.957 93.898 156.759 93.3723L159.408 93.5871ZM157.787 88.104V87.8892H158.297V88.104H157.787ZM159.322 87.4458C160.155 86.0562 156.599 84.6277 156.743 83.4049C156.759 83.2586 157.202 83.2678 157.274 83.1329C157.472 82.7535 157.448 82.269 157.67 81.9741C157.88 81.6907 158.975 81.213 159.218 80.6645C159.837 80.8153 161.602 81.5353 161.624 82.0587C161.503 83.4255 159.362 84.8471 159.867 86.1979C160.267 87.2675 161.447 86.2573 162.144 86.4607L159.322 87.4458ZM158.043 75.1586V74.9437H158.553V75.1586H158.043ZM159.84 79.22C159.779 78.4338 162.753 79.5766 162.905 80.0977C162.961 80.9228 159.853 79.3937 159.84 79.22ZM160.23 70.5783C160.203 70.7954 158.489 73.8604 158.305 73.9632C157.95 74.178 157.104 73.5404 156.853 73.3278C156.644 73.1518 156.078 72.5256 156.1 72.2947L157.656 67.9202C158.15 68.5396 160.315 69.92 160.233 70.576L160.23 70.5783ZM157.015 53.2217L158.428 52.9954L158.551 54.5336C158.236 54.8444 157.181 53.4068 157.015 53.2217ZM157.117 60.0052C154.933 59.507 155.656 58.4328 155.734 56.9517C157.186 57.418 158.692 58.8716 157.117 60.0052ZM155.99 51.9006H154.711V51.6858H155.99V51.9006ZM154.711 76.0408C154.952 75.8511 156.674 76.9893 156.759 77.355C156.289 77.5721 154.372 76.3105 154.711 76.0408ZM155.379 95.9024C155.245 96.8235 153.387 96.6018 152.648 96.7641C150.546 97.228 146.181 99.5776 144.288 100.579C141.255 102.183 138.602 102.668 136.255 99.8404C138.102 99.2576 138.927 97.5686 140.252 96.4624C141.699 95.2556 147.393 91.9095 149.201 91.3953C149.366 91.3473 149.636 91.3518 149.58 91.5004C148.576 93.2991 147.284 94.6453 145.615 96.0052C144.977 96.5264 143.551 97.5983 142.86 98.028C141.88 98.6359 139.939 99.173 139.411 99.5799C138.714 100.115 138.457 101.07 139.576 101.388C141.261 101.868 143.111 99.4519 144.328 98.6314C144.889 98.2542 148.8 95.7653 149.081 95.6601C149.652 95.4476 150.01 95.8201 150.44 95.7858C150.53 95.779 151.606 94.8282 151.809 94.7299C152.621 94.3436 155.299 93.3266 156.116 93.3608L156.247 93.7997C154.359 94.1608 155.478 95.2213 155.382 95.8955L155.379 95.9024ZM130.891 101.584C130.015 101.166 129.249 99.9547 127.797 99.9524L128.309 99.301C127.367 99.2622 127.185 98.3777 126.643 97.9731C126.123 97.5846 124.788 97.052 124.209 96.6658V96.9926L123.827 97.3195L122.93 96.7755L124.211 96.6658C123.68 96.3115 121.686 95.1002 121.381 94.8099C120.919 94.3711 120.823 93.4865 120.383 93.0911C120.046 92.7917 117.529 91.7998 118.063 91.1827L119.053 90.929L119.058 89.6674C117.574 89.3565 115.78 88.2937 114.611 87.4435C114.271 87.1967 112.491 85.8436 112.939 85.4756C113.305 85.4551 113.668 85.4573 114.031 85.5259C115.123 85.7316 117.323 86.8698 118.071 87.5532C118.904 88.3097 120.46 91.3381 121.322 92.4306C121.64 92.8329 123.621 94.2796 123.44 94.4648C123.354 94.5516 122.831 94.2956 122.935 94.691L124.195 94.5791C127.26 96.5881 130.437 98.4691 133.537 100.435C134.106 100.796 134.701 101.481 135.408 101.895C136.207 102.361 137.379 102.649 137.969 103.1C138.057 103.166 138.623 103.826 137.931 103.685C135.991 102.707 132.787 102.489 130.896 101.587L130.891 101.584ZM136.255 105.004C136.199 105.257 135.219 106.101 134.973 105.879C135.016 105.086 135.326 104.86 136.255 105.004ZM125.218 100.602C124.46 100.444 124.646 100.901 124.211 101.049L125.108 99.9547L125.22 100.602H125.218ZM84.4841 103.685L85.3625 104.496C86.4545 104.553 86.1848 103.806 86.5292 103.58C86.9324 103.315 90.6221 102.668 91.2255 102.661C91.6526 102.656 94.3091 103.214 93.9647 103.685L93.4548 104.126C95.0407 103.616 96.3115 105.017 98.0656 104.894C96.3382 105.826 93.8526 104.853 92.0878 104.869C89.5862 104.892 86.9297 105.838 84.4815 105.118L84.9967 104.562L84.4868 103.689L84.4841 103.685ZM86.2756 89.6422C83.1439 89.32 81.2723 87.4298 78.6292 86.319L79.617 82.1844C80.0762 82.1524 79.7906 82.6781 80.1163 82.9592C80.3005 83.1192 81.9718 83.6997 82.4471 84.0311C82.8369 84.3031 83.0264 84.7762 83.2881 84.9591C84.113 85.5373 86.4652 86.6116 86.4972 87.5464C86.5159 88.1086 86.0513 88.9588 86.2756 89.6399V89.6422ZM85.2477 93.1529C84.5536 92.8877 84.0223 92.4329 83.7126 91.8387C84.8232 91.7198 85.3892 92.1906 85.2477 93.1529ZM62.2925 82.7467C61.1738 81.885 60.2608 80.7445 59.1608 79.8485L60.7734 77.1424C62.159 77.6658 61.4408 79.4212 63.4672 79.3297L62.6983 79.7663V80.0908C63.3204 80.2965 63.3337 81.0782 63.5073 81.261C63.542 81.2999 63.8891 81.1239 64.1133 81.277C64.698 81.6816 65.4856 82.8152 65.264 83.494L65.9181 83.2952L66.2839 83.7134L65.774 82.9478L66.7965 82.3992L66.1531 84.8128C64.6793 84.4357 63.4245 83.6152 62.2952 82.7444L62.2925 82.7467ZM65.7713 86.7898L64.2335 86.3533L65.7686 86.1316V86.7875L65.7713 86.7898ZM63.7209 85.9145V86.351L63.2109 85.9145H63.7209ZM59.6227 74.2832V73.8466H59.8736V74.2832H59.6227ZM62.6956 77.355C61.9855 77.611 61.593 76.0934 61.6731 76.0408C62.1857 75.7117 62.8131 77.1013 62.6956 77.355ZM63.4646 78.011C63.1442 78.1572 62.5702 77.659 62.6956 77.5767C63.016 77.4304 63.59 77.9287 63.4646 78.011ZM65.0024 80.8679C65.4055 80.5091 66.2732 82.2004 66.2812 82.4015L65.5337 82.3947L65.0024 80.8679ZM63.2189 73.2981L65.9021 69.4583C66.3106 69.3852 67.0528 70.5874 67.5841 70.8845C67.9792 71.1062 68.62 71.0377 68.7241 71.1977C68.8149 71.3394 68.604 71.6936 68.7775 72.0136C69.3729 73.1084 70.6918 73.8969 71.9146 74.3906C71.6956 74.6854 71.5061 74.994 71.3005 75.2934C71.2605 75.3528 71.0282 75.3917 70.9214 75.5631C70.5556 76.1528 68.7668 79.9811 68.4598 79.9834C66.1958 78.059 65.0451 75.4991 63.2163 73.2981H63.2189ZM83.5897 64.1947C83.8888 64.7455 83.5897 65.4677 82.949 65.726C82.5218 64.9786 81.9238 64.4347 81.4005 63.6896C81.2937 63.5387 80.9573 63.5319 80.9359 63.4907C80.8692 63.3627 81.1148 62.6816 81.1522 62.6542C81.3524 62.5216 83.4776 63.9867 83.5897 64.1947ZM82.4337 59.7995V59.5847H82.9436V59.7995H82.4337ZM83.8434 59.5824L83.9609 60.0121L83.2053 60.4578C83.1012 60.0395 83.5337 59.8658 83.846 59.5824H83.8434ZM80.6396 59.7401C79.9641 60.5583 80.0122 61.18 79.4835 61.9914C78.5304 61.42 74.4669 59.1847 74.7686 58.1996C74.8167 58.0442 75.8472 57.1277 76.0315 57.0568C77.3637 56.5289 77.6574 57.7242 78.3435 58.1448C78.8908 58.4808 80.3139 58.8807 81 59.1299L81.1442 59.5778C81.1282 59.5961 80.7971 59.5481 80.6396 59.7401ZM75.4254 63.8244C75.9086 64.2107 76.1649 65.1021 77.0326 65.4175C76.1115 67.2208 74.4776 68.7567 74.2266 70.7726C72.825 70.8457 72.3631 69.3829 71.6663 68.6881C71.1483 68.1716 68.9591 66.4003 68.887 66.0071C68.7642 65.326 71.6716 62.1331 72.307 61.3446C72.9238 62.7045 74.4135 63.0176 75.4254 63.8267V63.8244ZM68.5933 85.4756H69.1032V85.6905H68.5933V85.4756ZM69.1032 88.3257C69.5571 88.2115 71.2818 88.3463 71.0255 88.9771C71.0042 89.0274 70.6704 89.6171 70.6357 89.6399C70.4141 89.7816 68.604 88.7577 69.1032 88.3257ZM70.6411 87.6698C70.9614 87.5235 71.5355 88.0218 71.41 88.104C71.0896 88.2503 70.5156 87.7521 70.6411 87.6698ZM71.1563 88.328H71.6663V88.5429H71.1563V88.328ZM70.1632 81.8073L72.9531 75.8214C73.5779 75.3208 73.8849 77.2407 73.9917 77.4304C74.7766 78.8315 75.332 78.3926 76.205 78.9572C76.3011 79.0189 77.6547 80.3651 77.7482 80.4702C77.8016 80.5296 77.6627 80.8039 77.7588 81.0096C77.895 81.2976 78.2741 81.4667 78.3035 81.8393C78.3862 82.8815 77.2409 84.5248 77.2889 85.679L74.4936 85.8116L70.1605 81.8073H70.1632ZM75.2599 72.425L78.3328 66.6037C78.477 66.51 79.884 67.831 80.0789 68.0687C80.3913 68.4458 81.6114 70.3566 81.6621 70.6788C81.8063 71.5816 80.9386 72.745 80.6956 73.5678C80.3859 74.6077 80.9306 77.291 78.5705 75.9425C78.1326 75.6911 75.2679 72.7267 75.2572 72.4273L75.2599 72.425ZM81.9211 83.2792V82.8426H82.3002L82.6873 83.1718L81.9211 83.2792ZM82.8769 79.9948C82.7674 79.9217 81.3284 78.5321 81.275 78.4384C80.9333 77.8258 82.6954 72.233 83.0718 72.0913L88.545 76.4065L87.8107 81.7456C87.6185 81.9056 83.2667 80.2531 82.8742 79.9948H82.8769ZM91.9169 68.8001L97.4221 71.6548C97.3607 73.3964 98.2444 75.0054 97.8066 76.6968C97.3954 76.5116 96.9256 76.3676 96.5411 76.1368C95.9297 75.7665 91.9116 73.1998 91.7888 72.9644C91.2041 71.8605 92.208 70.0275 91.9143 68.8001H91.9169ZM92.4269 64.5192V61.3377L95.7028 61.8245C95.9457 62.5559 97.1178 66.0254 96.5251 66.3843L92.4269 64.5192ZM93.4548 79.1126C92.8487 79.9857 95.2329 81.6267 96.0151 80.6485L95.8683 81.3182L98.3512 82.5044L98.5782 86.7898L89.7223 82.8426L90.6381 78.0132C91.7381 78.3721 92.1012 79.3892 93.4574 79.1126H93.4548ZM127.799 51.9029C127.936 51.7612 130.202 53.3885 130.288 53.5005C130.477 53.7451 130.397 54.401 130.835 54.6936C129.708 56.1426 127.538 55.9278 125.746 55.6306C125.567 54.7896 126.614 54.7964 127.132 54.0742C127.487 53.5805 127.853 52.4857 127.799 51.9029ZM133.177 71.2114C132.49 70.8457 131.844 70.3703 131.252 69.904C130.587 69.3784 128.187 67.4036 127.845 66.8894C127.466 66.318 127.028 61.8085 127.284 61.5571C128.435 61.7194 129.025 62.6748 129.797 63.2942L132.012 65.0769L133.177 71.2091V71.2114ZM132.157 61.9937V61.7788H132.667V61.9937H132.157ZM134.682 57.8568C135.096 58.9562 136.693 61.5343 136.177 62.5925C136.151 62.6473 135.406 63.2279 135.358 63.5273C133.198 62.0622 132.277 60.2498 133.163 57.9231L134.682 57.8568ZM133.182 56.2935H133.692V56.618L133.185 56.9494V56.2935H133.182ZM151.182 85.6402C150.987 85.4825 150.966 85.0322 150.733 84.8174C149.972 84.1066 148.891 83.4003 148.194 82.6027C147.588 81.9101 146.87 80.3628 146.269 79.9171C145.89 79.6337 145.447 79.9011 144.991 79.4212C144.545 78.9526 143.77 76.3013 144.579 76.2648C144.766 76.2556 147.169 78.0567 147.439 78.3104C148.208 79.0372 149.212 80.8999 149.655 81.2427C150.034 81.5353 151.382 81.8759 151.892 82.2873C152.608 82.8655 152.543 83.6677 152.944 84.2391C153.184 84.582 154.968 86.063 154.703 86.3487C154.255 86.6961 151.387 85.8116 151.177 85.6402H151.182ZM153.171 89.2011L153.43 88.3257C154.621 88.3966 154.327 89.3405 153.171 89.2011ZM151.379 92.714C151.257 92.0901 151.804 91.7724 152.274 91.4044C153.627 92.3438 152.503 92.4055 151.379 92.714ZM142.665 90.0811L146.264 85.0414C146.622 84.8357 148.29 86.1407 148.565 86.4538C150.557 88.7234 144.35 89.8936 142.665 90.0811ZM146.248 91.1804V91.617H145.997V91.1804H146.248ZM138.094 88.2549C137.432 89.5325 136.306 90.641 135.481 91.8341C134.915 92.2638 135.134 91.9209 135.072 91.5987C134.981 91.0958 135.275 90.4902 134.461 90.961L134.453 90.3073C132.071 90.4102 130.814 92.0809 128.309 90.9564L128.825 89.4228C130.09 89.8479 131.31 90.9884 132.683 90.1656L132.656 88.9954C131.249 88.7508 128.63 88.4126 129.078 86.7921L130.608 86.4653C130.584 85.5556 129.028 85.1625 128.859 84.662C128.689 84.1523 129.164 83.0666 128.825 82.4038C129.145 82.0998 132.02 84.3717 132.434 84.678C132.667 84.8494 133.102 84.8585 133.315 85.0322C134.341 85.8642 135.101 88.0195 137.024 87.119C137.317 86.9818 137.801 86.1522 137.817 85.8093L136.773 80.212C137.715 80.9571 137.638 81.7799 139.136 82.0404C140.345 82.2507 140.74 80.4199 142.152 82.1821C141.821 82.2438 141.135 82.4815 140.951 82.6918C140.74 82.9318 140.527 83.7294 140.233 84.1637C139.141 85.7842 138.903 86.703 138.097 88.2595L138.094 88.2549ZM138.818 91.3975H138.308L138.692 90.961L138.818 91.3975ZM134.461 98.6359H133.951L134.076 98.1994L134.461 98.6359ZM133.692 97.9777H133.182V97.3217H133.433L133.692 97.9777ZM132.408 97.1046V97.5412H132.157V97.1046H132.408ZM127.824 75.0146C127.487 74.5049 127.666 72.5759 127.287 71.8719C127.559 71.6136 129.692 73.5769 129.981 73.8421C130.68 74.4912 131.337 75.3848 132.018 76.0522C132.424 76.4499 133.604 77.0556 133.924 77.4876C134.186 77.8418 134.917 80.8496 134.717 81.085C134.672 81.1376 133.969 80.7376 133.825 80.6439C133.345 80.3285 132.103 79.2314 131.631 78.7949C130.971 78.1869 128.155 75.5105 127.826 75.0146H127.824ZM140.025 89.2491C140.273 88.6663 140.163 87.8892 140.604 87.3224L140.102 87.1212C140.294 86.7944 140.882 86.8904 141.063 86.7373C141.207 86.6161 142.158 84.662 142.446 84.2986C143.001 83.6015 143.501 83.0689 144.459 83.6129C144.894 83.8437 144.558 83.9603 144.406 84.2186C143.81 85.2242 143.068 86.6641 142.417 87.5646C141.557 88.7531 140.145 89.4845 139.584 90.737C138.372 90.8467 139.816 89.7359 140.025 89.2468V89.2491ZM143.172 71.6502C140.823 70.2857 140.647 67.3465 139.822 65.182L143.303 58.7093L146.512 64.3181C145.602 67.1065 141.464 68.3476 143.172 71.6502ZM140.762 73.8489L140.113 75.7208C139.856 75.9334 139.608 75.7962 139.339 75.7048C138.986 75.5837 136.327 74.0843 136.111 73.8581C135.43 73.1495 135.211 71.8902 135.206 71.0034L134.461 70.9897C135.04 69.9383 134.578 68.7407 134.207 67.703C135.256 66.9945 138.166 71.4445 138.714 72.0685C139.325 72.7656 139.961 73.3141 140.764 73.8489H140.762ZM136.514 67.2619V66.8254H136.765V67.2619H136.514ZM137.79 60.0212C137.136 60.1104 137.392 59.9755 137.256 59.715C136.856 58.9516 136.695 57.9894 136.025 57.2763C136.055 56.9494 139.453 55.9529 139.587 56.074L137.79 60.0212ZM129.847 58.4876H130.357V58.9242L129.847 58.4876ZM121.384 86.0287C121.694 86.3236 124.035 88.36 124.217 88.4309C125.554 88.9543 127.484 87.2538 126.515 90.0788C126.16 90.3005 124.759 88.9246 124.283 88.8103C122.762 88.44 120.917 89.304 120.228 87.0161C120.158 86.7875 119.851 85.0276 119.859 84.9202C119.945 83.782 121.277 85.9282 121.381 86.0287H121.384ZM120.877 82.8426C121.197 82.6964 121.771 83.1946 121.646 83.2769C121.325 83.4232 120.751 82.9249 120.877 82.8426ZM124.98 85.6905V85.4756H125.746V85.6905H124.98ZM126.262 86.5704V86.1339H126.513V86.5704H126.262ZM127.028 94.1402L126.526 94.2408L126.005 93.594C126.494 93.5048 126.697 93.8751 127.028 94.1425V94.1402ZM126.934 82.3353C126.934 82.5958 126.79 82.8061 126.769 83.0598C126.657 83.1375 124.612 81.9307 124.342 81.7387C123.643 81.2382 123.012 80.3445 122.479 79.9834C121.635 79.4097 119.654 78.7241 118.602 78.4269L117.804 74.0661C118.063 73.8466 120.479 75.2728 120.855 75.5105C122.31 76.4225 124.457 78.1664 125.594 79.3526C126.045 79.8234 126.94 81.7456 126.937 82.3353H126.934ZM125.234 57.1665C124.508 57.7494 122.7 55.2055 125.49 55.6352C124.9 56.2112 124.951 56.4626 125.234 57.1665ZM125.234 58.4876V58.7025H124.724V58.4876H125.234ZM124.924 69.8309C125.05 70.2857 125.501 73.1861 125.234 73.4032L119.357 70.4274C117.521 68.9647 116.063 67.7259 115.115 65.7214C114.624 64.6792 114.394 63.4976 113.962 62.4325C115.03 62.3457 115.51 63.1936 116.138 63.5296C118.081 64.5718 124.403 67.9362 124.927 69.8286L124.924 69.8309ZM118.917 95.1962C119.443 95.3196 119.705 95.9573 120.118 96.1172C120.463 96.2498 121.184 95.9801 121.646 96.2292L120.623 96.6635C121.221 96.5858 122.401 97.8703 122.145 98.1834C120.599 99.0519 119.01 99.3765 117.155 99.4542C115.27 99.5342 112.961 98.9011 111.412 98.9696C110.245 99.0199 109.311 98.9216 108.443 98.9582C107.92 98.9811 107.034 99.5387 106.382 99.4976C106.008 99.4747 105.768 99.1182 105.416 99.1228C104.866 99.1296 104.054 99.7239 103.192 99.2965L105.389 98.4394C109.912 98.1103 114.426 94.1425 118.914 95.1984L118.917 95.1962ZM113.444 93.8088L113.828 93.3768L114.213 93.7037L113.444 93.8111V93.8088ZM116.266 94.6865V94.4716H117.032V94.6865H116.266ZM121.904 96.8829V96.4464L122.671 96.6681V96.8829H121.904ZM100.877 97.8703C100.225 98.0943 99.6701 97.6989 99.857 98.6337H99.0935L99.6034 97.9823L97.0404 98.2017L96.9149 98.6405C96.6719 98.124 96.1406 98.012 95.5025 97.9823L95.7642 98.4165C94.3999 98.0828 93.6363 98.9902 92.1759 99.0771L92.9448 98.3091L91.9196 98.1971C92.1172 97.5914 93.4815 98.2337 93.8259 98.1651C94.1089 98.1103 94.1543 97.6669 94.4132 97.5343C95.3477 97.0543 96.4824 96.9126 97.4248 96.4395L97.553 96.8806H99.3471L98.3245 96.4464L106.209 94.5105C107.931 94.6453 109.479 94.6499 111.137 94.2499C111.698 94.659 109.167 95.3424 108.926 95.4339C106.476 96.3709 103.539 96.9538 100.88 97.8703H100.877ZM100.375 98.4165V98.2017L101.91 97.9823C102.265 98.1217 100.797 98.5879 100.375 98.4165ZM90.1201 100.835V101.049L89.3539 101.271V100.835H90.1201ZM87.8188 93.482L89.8638 93.594C89.6262 94.0602 88.1071 93.882 87.8188 93.482ZM88.9187 90.5633C88.6517 90.4353 88.2272 90.2708 88.1739 89.9828L88.5877 87.8869C89.5461 87.8275 89.8986 88.616 90.8063 88.9657C91.7114 89.3154 96.7146 90.7621 97.4115 90.7484C97.4809 90.7484 97.7345 89.9576 98.5808 90.2982L97.8146 90.8444C99.0027 91.2078 98.5675 92.2432 99.6061 92.5997C99.3017 93.3334 97.2593 92.6043 96.6345 92.5129C94.5761 92.2158 90.7502 91.4364 88.9241 90.5587L88.9187 90.5633ZM89.6049 71.6502L87.1326 70.0412C86.0273 68.375 84.3827 67.3671 85.2531 65.2895L90.1388 67.6436C90.6141 68.2836 89.7757 70.8365 89.6075 71.6525L89.6049 71.6502ZM89.6075 87.0115L89.2204 87.4458H88.8413V87.0092H89.6075V87.0115ZM90.8917 87.6698C91.3483 87.6103 91.7915 87.6835 91.9143 88.104C91.714 88.1269 90.9478 87.9349 90.8917 87.8846C90.857 87.8526 90.9051 87.7406 90.8917 87.6698ZM95.5025 88.9863C95.628 89.0708 95.054 89.5668 94.7336 89.4205C94.6081 89.336 95.1822 88.84 95.5025 88.9863ZM110.851 87.2515C111.182 87.6492 110.862 88.1726 111.02 88.5314C111.337 89.2514 112.723 89.6354 112.675 90.5176L106.014 91.3975L106.267 90.305C105.338 90.3416 105.274 89.6948 104.663 89.3748C103.549 88.792 101.883 88.3097 100.661 87.8572L100.372 83.4963C100.458 83.4232 102.551 83.8826 102.738 83.9511C103.002 84.0471 102.986 84.3306 103.253 84.4403C103.616 84.5888 105.402 85.3225 105.498 85.2539L106.011 84.5957L105.757 85.4711C106.508 85.1534 106.743 85.9167 107.311 86.2253C108.481 86.863 109.38 87.4069 110.854 87.2492L110.851 87.2515ZM109.602 84.3763C109.581 83.8232 109.973 83.5283 110.368 84.0494L109.602 84.3763ZM102.423 91.6192V92.0558H101.913V91.6192H102.423ZM101.651 91.3975V92.0535H101.4V91.3975H101.651ZM103.704 83.0621H104.214V83.4986L103.704 83.0621ZM105.242 83.9397H105.752V84.3763L105.242 83.9397ZM106.783 84.8128V84.598H107.293V84.8128H106.783ZM100.26 78.4384C99.833 77.8807 99.3231 73.0833 99.6061 72.7473C100.872 73.7552 102.556 74.2375 103.945 75.0648C104.505 75.4008 106.892 77.0007 107.154 77.3641C108.024 78.5686 107.995 80.5982 108.315 81.9627C108.005 82.2461 100.621 78.9115 100.257 78.4406L100.26 78.4384ZM109.087 97.1046V97.3195H108.577V97.1046H109.087ZM108.315 97.1046V97.5412H108.064V97.1046H108.315ZM107.805 97.324V97.5389H107.295V97.324H107.805ZM106.777 97.324V97.7606H106.526V97.324H106.777ZM111.511 83.7409C111.001 83.4095 111.263 82.7672 111.004 82.4061C110.846 82.189 110.36 82.1867 110.165 81.8073C109.815 81.1285 109.896 79.6817 109.602 78.8909C109.986 78.8132 110.205 78.9663 110.515 79.0943C111.759 79.604 115.152 81.1742 116.186 81.8141C117.713 82.7604 117.214 83.6632 117.545 85.0322C115.967 84.5363 114.421 83.6906 112.702 83.6015C112.176 83.574 111.874 84.0609 111.514 83.7386L111.511 83.7409ZM115.104 72.0936C115.625 72.6879 116.6 76.8087 116.26 77.1356C115.983 77.403 109.682 74.0615 109.079 73.5221L107.293 67.0448C107.573 66.7705 110.048 68.9075 110.382 69.1155C111.102 69.5589 112.464 69.9017 113.062 70.3314C113.212 70.4389 115.014 71.9953 115.102 72.0959L115.104 72.0936ZM113.188 65.9454C111.575 65.6483 111.041 64.1901 109.687 63.349C108.577 62.6588 107.151 62.3182 106.014 61.6691C106.265 61.2212 109.589 60.956 110.344 60.4761C110.648 61.2966 113.713 65.4472 113.188 65.9454ZM106.78 71.8673C106.422 72.1279 99.6488 68.135 98.8158 67.607L98.0656 62.4371C100.551 63.0473 102.546 64.4141 104.863 65.2826C105.816 67.463 106.016 69.6915 106.78 71.8673ZM90.251 63.0885L87.995 61.6257L84.9967 60.2452L90.3765 61.1274L90.2536 63.0908L90.251 63.0885ZM95.6414 101.939C95.5933 101.712 95.6734 101.269 95.8256 101.111C96.2501 100.672 98.3219 100.556 98.9706 100.599C100.343 100.695 101.056 101.342 102.054 101.477C105.151 101.895 109.111 100.794 112.29 100.832C114.269 100.855 116.749 101.984 118.463 101.952C119.098 101.941 120.674 100.711 121.99 100.899C122.233 100.933 122.484 101.269 122.804 101.276C123.215 101.287 123.461 100.711 123.701 100.944C123.37 102.165 122.158 101.664 121.568 101.783C115.006 103.107 109.314 103.056 102.567 103.036C101.112 103.031 96.2581 103.294 95.6467 101.939H95.6414ZM123.565 100.611H123.186V99.9547L123.952 100.176L123.565 100.611ZM155.475 80.4245L153.942 78.0132C155.034 78.7492 156.271 79.0098 155.475 80.4245ZM153.686 73.4055V72.969H154.196V73.4055H153.686ZM153.425 68.1396C152.848 68.2561 153.011 68.0664 152.84 67.8653C152.645 67.6367 151.385 65.5386 151.374 65.3786L152.92 62.8736L153.446 63.0108L154.621 64.7386L153.425 68.1373V68.1396ZM151.505 72.3039C151.19 72.2947 150.578 70.5029 150.611 70.1143C151.185 70.1783 152.37 72.3313 151.505 72.3039ZM150.48 68.5738L150.095 68.1419L150.864 68.2493L150.48 68.5761V68.5738ZM150.344 74.418C150.432 75.4397 149.465 76.3653 149.324 77.355C148.931 77.5881 147.981 76.891 147.767 76.587C147.535 76.2579 147.722 75.9585 147.626 75.8191C147.07 75.0169 146.173 74.0432 145.487 73.2913L145.535 73.0033C146.269 72.9918 145.858 72.3862 146.04 72.1302C146.149 71.9748 146.937 71.9725 147.158 71.6548C147.415 71.2822 147.185 70.704 147.332 70.2697C147.444 69.9383 148.069 69.6892 148.053 69.2389L148.581 69.3761C148.656 69.6298 148.913 69.8195 148.998 70.0663C149.318 71.008 150.279 73.6478 150.346 74.418H150.344ZM138.818 52.12C137.021 51.88 135.342 52.952 133.684 52.9108L129.847 49.2745L134.293 48.2391C135.948 49.3133 137.05 50.9887 138.818 52.1223V52.12ZM127.973 47.4872C127.188 47.2632 125.445 43.252 123.955 43.1217L124.112 42.6875L129.417 42.0498L131.035 43.9742L132.661 46.5204C132.378 47.078 128.787 47.4894 127.973 47.4872ZM124.462 48.1728C122.465 47.9077 121.186 45.8027 120.879 44.2234L122.671 45.6496L124.462 48.1728ZM102.818 52.4651C102.289 53.2308 101.571 53.8616 101.333 54.8078L99.4352 57.5734C95.9244 57.8774 92.5871 56.6043 89.0949 56.5106C88.4942 56.0261 92.1679 53.4594 92.7019 53.1257C94.2851 52.136 95.6067 51.7726 97.27 51.1121C97.892 50.8652 99.016 50.0973 99.5393 49.9784C101.451 49.5442 101.875 51.3406 103.704 51.2469C103.301 51.6149 103.109 52.0469 102.818 52.4651ZM96.9015 49.1396C94.9419 50.799 91.5592 52.3074 89.2178 53.8913C89.0042 54.0353 88.6998 53.9005 88.6384 53.9485C88.1712 54.2913 87.1113 55.5369 86.7668 56.0649C83.79 55.1781 81.2617 53.9553 78.8455 52.232C80.0629 51.7063 81.283 51.0504 82.5138 50.5475C84.663 49.6699 90.8811 47.142 92.8781 46.8998C94.4052 46.7146 96.2394 48.0723 97.2967 48.9431C97.3714 49.1031 97.0537 49.0116 96.9042 49.1396H96.9015ZM77.2169 50.9795C76.6936 50.9361 75.8873 50.1613 75.5055 49.823C74.3548 48.8014 71.6583 46.4175 72.9772 45.1216C74.1065 45.6724 74.8514 45.0347 75.8552 44.8473C77.3557 44.5662 79.0137 44.1731 80.5114 44.0062C81.6568 43.8782 89.6076 43.4691 90.0774 43.8234C90.2216 43.9308 90.0481 44.4953 90.5313 44.6371C91.415 44.8976 92.1973 44.2051 92.6832 45.5376L77.2169 50.9795ZM66.4174 56.9517C66.8766 56.8649 68.0273 58.5745 68.4118 58.8556C68.7962 59.1367 70.5369 59.6898 70.5797 60.1264L67.4373 64.6244C65.3575 63.6827 64.2094 62.4188 63.235 60.6018L66.4147 56.9494L66.4174 56.9517ZM59.5986 75.2637L58.0662 78.2212L57.3373 78.2144C56.3815 76.4796 54.6301 74.9917 53.2498 73.4672L54.8784 70.9942C55.1053 71.5679 55.9383 71.4422 55.9864 71.4811C56.1359 71.5999 56.6431 72.745 56.9689 73.1267C57.2038 73.4032 57.5242 73.5038 57.7832 73.7598C58.3625 74.3289 58.3385 74.9277 59.596 75.2637H59.5986ZM53.9813 79.9903L53.4714 80.4268V79.9903H53.9813ZM50.4198 79.62C50.3023 79.2977 50.4678 78.7743 50.7215 78.5115C50.7882 78.4429 51.3702 78.2144 51.4049 78.2349C51.4049 78.6646 51.9843 79.0029 52.0884 79.3252C52.3794 80.2142 50.9137 80.4611 50.4198 79.62ZM47.0584 64.4095C45.3417 63.5044 46.1801 62.6039 46.148 61.3263L48.1824 60.9172C49.6695 61.2737 46.8822 63.669 47.0611 64.4095H47.0584ZM46.2869 72.6421C46.4898 72.8684 46.965 72.9507 47.1732 73.1998C47.7072 73.8352 47.4082 75.0054 48.4014 75.746C48.4574 75.7871 49.0368 75.618 49.2477 76.0294L48.5963 78.2304C48.2065 78.3195 48.1718 78.1435 47.9528 78.0132C47.4562 77.7184 43.9614 74.2078 43.8333 73.8489C43.4675 72.825 44.5942 72.1827 44.757 71.2091C45.6621 71.1908 45.8277 72.1302 46.2842 72.6399L46.2869 72.6421ZM46.2815 78.7309C46.7407 79.1035 48.105 79.2886 48.0837 80.2074L42.6933 77.8532C41.7722 77.019 42.8054 76.1596 42.7039 75.1609C43.035 74.8134 45.9852 78.4909 46.2789 78.7309H46.2815ZM42.7013 71.6502L41.9324 71.3165C42.752 70.3566 42.6719 69.2595 42.8294 68.1419C44.6716 69.3921 43.0323 70.2263 42.6986 71.6502H42.7013ZM44.2364 80.5365C43.4809 81.4782 42.0899 81.6519 41.1902 82.093C37.7247 83.7957 34.326 85.5076 30.6844 86.9224C29.9448 87.2104 29.3948 88.0583 28.1454 87.6218L26.6182 85.3614C26.6876 84.582 30.4361 83.478 31.3358 83.0941C34.0297 81.9421 36.7876 80.7079 39.4708 79.7366C41.4171 79.0303 42.6319 79.5263 44.2364 80.5388V80.5365ZM27.3284 89.4228C27.7502 89.3291 27.4459 89.7999 27.7476 89.8662C29.9368 90.337 31.3919 88.3714 32.8816 87.4846C35.693 85.8116 41.094 83.2952 44.2898 82.3307C44.3806 82.3033 45.7449 81.9239 45.4005 82.4015C44.5061 83.2015 42.202 83.7569 41.4224 84.262C40.9499 84.5683 41.0273 85.0002 40.8271 85.1785C40.0581 85.8642 37.7114 86.7076 36.5713 87.3498C35.6289 87.8823 34.6704 88.3714 33.7547 88.888C32.7108 89.4754 31.7523 90.7256 30.8446 91.2238C28.9196 92.2821 26.992 91.4433 27.3311 89.4228H27.3284ZM49.3679 88.9817C49.2424 88.8971 49.8164 88.4012 50.1368 88.5474C50.2622 88.632 49.6882 89.128 49.3679 88.9817ZM48.8552 89.2057L42.4503 93.1529C41.9991 92.7483 44.7143 91.4798 44.9359 91.3313C45.1228 91.2056 45.1949 90.8421 45.5286 90.6387C46.4417 90.0811 47.7553 89.2948 48.8579 89.208L48.8552 89.2057ZM56.5444 96.8806L57.4441 96.0075H57.8232C58.1489 96.2772 57.0036 97.004 56.5444 96.8806ZM59.62 107.522C59.1421 107.854 58.8885 108.718 58.2183 108.729C57.9914 108.734 54.2136 107.275 54.0507 107.136C53.8158 106.933 53.7757 106.434 53.4767 106.206C55.3616 105.168 57.8419 106.864 59.62 107.522ZM80.8932 107.632C80.2872 107.87 80.1403 106.882 80.1857 106.672C80.2444 106.402 81.0694 105.817 81.4058 105.657C81.4485 106.565 80.3619 106.647 80.8959 107.63L80.8932 107.632ZM80.8932 108.29H80.3833L80.5088 107.854L80.8932 108.29ZM78.4957 111.716C78.6479 111.6 78.5197 111.291 78.7146 111.364C79.7692 111.837 81.3791 112.454 82.5645 112.697C84.0009 112.992 85.6562 112.628 87.178 112.681C87.4877 112.692 88.1311 112.514 88.0697 112.896C87.6025 113.012 87.17 113.101 86.6734 113.126C85.1196 113.206 81.1629 113.282 79.7585 113.104C79.4301 113.062 77.879 112.555 77.8202 112.347C77.7615 111.97 78.2314 111.917 78.4957 111.714V111.716ZM95.6227 112.023C97.2406 111.805 97.9935 112.445 99.2964 112.635C101.945 113.019 108.248 111.89 110.694 110.877C111.196 110.669 111.711 110.32 111.393 109.831H118.826L118.29 112.441C117.852 112.505 117.403 112.418 116.965 112.509C113.236 113.291 109.201 113.133 105.45 113.606C104.233 113.76 101.87 114.621 100.698 114.39C100.047 114.262 100.028 113.622 99.3551 113.424C98.2017 113.083 95.329 114.036 95.2382 112.354C95.2115 111.885 95.2516 112.068 95.6227 112.018V112.023ZM106.526 110.046V109.831H107.036V110.046H106.526ZM107.939 108.059C106.817 108.011 102.602 107.774 101.98 107.358C101.253 106.871 102.062 106.741 102.15 106.592C102.313 106.313 102.268 105.893 102.546 105.655C102.615 105.595 104.204 105.031 104.366 105.01C105.191 104.901 105.787 105.253 106.385 105.216C110.037 104.992 114.023 104.578 117.716 104.213C120.078 103.977 122.059 104.384 124.27 103.408C125.01 103.084 125.495 102.519 126.024 102.277C127.778 101.475 130.552 103.906 132.413 104.133C131.695 105.305 133.166 105.918 131.631 106.857C130.221 107.721 129.343 107.163 128.184 107.307C121.963 108.08 114.311 108.331 107.941 108.059H107.939ZM124.091 109.838C126.868 109.618 129.722 109.223 132.472 108.674C132.856 108.596 133.139 108.336 133.313 108.297C133.398 108.279 133.572 108.967 134.402 109.129C134.784 109.204 138.196 109.204 138.703 109.179C140.697 109.083 143.343 108.66 145.1 107.856L145.223 108.288C145.185 108.324 144.774 108.329 144.577 108.505C142.975 109.938 143.116 109.198 141.306 109.655C136.212 110.946 131.049 111.547 125.72 112.146C125.311 112.192 124.823 112.585 124.299 112.612C123.578 112.651 122.569 112.148 121.656 112.448C120.356 109.038 121.427 110.046 124.086 109.833L124.091 109.838ZM137.026 106.757C137.576 104.912 139.643 106.231 140.713 105.42C141.191 105.058 141.792 103.884 142.147 103.582C142.393 103.376 145.089 102.263 145.663 101.977C148.064 100.778 151.411 98.9879 154.132 98.4714C155.534 98.2063 155.029 98.6725 155.59 99.0816C156.933 100.062 158.826 99.2416 160.214 99.2805C161.012 99.3033 162.318 99.8747 163.164 99.9593C163.103 100.234 162.336 100.549 162.059 100.656C157.568 102.368 153.966 102.588 149.521 103.746C145.22 104.866 141.728 107.934 137.024 106.759L137.026 106.757ZM161.122 75.49C162.342 75.0214 162.956 74.3403 163.169 73.1861C163.829 72.7861 165.666 74.8317 165.946 75.3094L164.95 77.1264L161.122 75.4877V75.49ZM163.423 70.1166C163.901 70.0229 164.048 70.3383 164.325 70.5577C164.948 71.0445 165.917 72.0708 166.24 72.7473C165.356 71.7005 163.327 71.6228 163.423 70.1166ZM166.758 81.5239L166.883 81.0873L167.268 81.5239H166.758ZM167.281 76.7059L168.047 76.7996L171.355 79.6817C171.441 80.0337 169.347 81.5947 168.8 81.2039C167.676 79.4052 165.586 78.8886 167.278 76.7059H167.281ZM170.357 62.997C169.046 63.4839 168.8 62.1354 167.879 61.6966L165.997 59.9344C166.619 57.8774 166.104 55.2467 167.398 53.4434L169.126 56.7963C169.47 57.1757 170.535 57.8979 170.722 58.2751C171.027 58.8899 171.003 62.6245 170.357 62.9993V62.997ZM168.715 66.9008C170.074 68.1716 169.198 68.8435 168.803 70.3337C168.546 70.5051 167.099 68.7681 166.883 68.5807C166.253 68.0322 164.123 66.7591 164.229 65.8951C164.283 65.4677 164.803 64.9329 164.707 64.4095C164.993 64.3798 165.214 64.4027 165.473 64.5192C165.727 64.6335 168.421 66.6288 168.712 66.9008H168.715ZM164.325 58.7047C164.042 59.0521 163.912 58.8099 163.602 58.6613C162.921 58.3368 162.558 57.8819 162.045 57.4728C161.519 57.0523 160.74 56.7574 160.401 56.138L160.606 52.1223L162.048 53.2011C163.412 52.5543 162.932 51.6766 164.939 52.3577L164.325 58.7047ZM154.965 46.0884C155.211 46.3375 155.237 46.7649 155.462 46.982C155.878 47.3843 157.109 47.4232 157.013 48.6117C155.643 48.8585 154.135 48.7077 152.786 48.8334C151.879 48.9179 150.384 49.5556 149.695 49.3019L147.02 46.093L152.752 43.8051C153.446 44.6051 154.22 45.3296 154.965 46.0884ZM146.008 44.1297C144.195 44.3491 144.334 42.852 143.543 42.0452C143.268 41.7641 140.276 39.5539 140.615 39.1791C142.374 38.6009 144.433 38.7974 146.058 39.6134C146.264 39.7162 146.32 40.0751 146.686 40.2236C147.481 40.5482 148.704 40.5322 149.58 40.5916L150.611 42.1275C150.522 42.4772 146.627 44.0565 146.01 44.1319L146.008 44.1297ZM136.249 37.9655C135.67 38.4066 132.111 38.8294 131.155 39.1585L129.853 37.5312C131.204 36.3153 133.558 36.953 135.32 36.3084L136.508 37.4261C136.591 37.7255 136.484 37.7872 136.252 37.9632L136.249 37.9655ZM130.859 34.7771C129.895 34.9302 128.51 35.1839 127.599 34.8617C127.127 34.6948 126.708 33.6915 126.243 33.3738C125.493 32.8618 124.182 33.1543 124.462 32.1556C125.103 32.2767 125.805 31.9133 126.374 31.943C127.223 31.9864 131.681 33.7806 130.859 34.7748V34.7771ZM124.465 36.2147C124.694 36.3359 124.823 36.7701 125.103 36.9827C126.219 37.8238 127.538 38.946 127.797 40.2716L121.63 41.2567C120.404 40.4133 119.937 37.7872 120.746 36.7587C121.096 36.3153 123.843 35.8856 124.468 36.2147H124.465ZM120.377 34.56L120.132 33.0538L122.137 32.6104L122.93 34.128L120.38 34.56H120.377ZM118.573 51.4663H119.082V51.6812H118.573V51.4663ZM116.266 30.6219H116.517V31.0585H116.266V30.6219ZM116.18 50.047L115.497 50.3647C115.446 50.0264 115.243 49.7179 115.222 49.3705C114.979 45.2747 114.242 40.9001 114.458 36.6421C114.509 35.6296 114.939 34.5508 114.728 33.4698C116.301 34.5645 115.425 36.0273 115.513 37.2935C115.697 39.9196 115.839 42.7332 116.004 45.4301C116.098 46.9638 115.807 48.5248 116.18 50.0447V50.047ZM114.472 27.109C115.062 27.077 114.928 27.0313 114.984 27.4336C115.112 28.3729 115.201 29.4929 114.982 30.3979L114.474 27.109H114.472ZM111.815 10.6346C113.465 10.8769 115.799 10.9797 115.983 12.7579C115.977 16.9702 115.163 21.1985 114.466 25.3514C114.242 25.3354 113.836 24.2132 113.831 24.1469C113.609 21.7631 113.684 19.85 113.126 17.3999C112.72 15.624 111.441 12.9339 111.441 11.4117C111.441 11.2129 111.57 10.678 111.818 10.6346H111.815ZM104.577 6.70344C104.735 5.96748 105.17 5.27953 105.261 4.52986C106.406 4.40644 108.441 5.17896 108.975 6.03148C109.717 7.2154 109.079 7.57424 109.111 8.54561C109.145 9.5764 109.815 10.7969 109.701 12.0037C109.602 13.0162 108.924 12.4425 108.814 12.7579C108.211 14.4858 109.241 16.3691 109.524 18.0696C110.475 23.7904 110.547 29.6369 110.875 35.3439C111.156 40.1756 111.22 45.0256 111.927 49.823L111.671 50.4995C111.196 50.9178 110.563 50.9932 110.133 50.4607C109.997 50.2938 109.225 48.0106 109.113 47.6037C106.98 39.7711 106.574 31.2436 105.736 23.3058C105.205 18.2684 103.533 11.5534 104.575 6.70572L104.577 6.70344ZM99.6087 6.15033C101.152 7.45996 100.209 7.80737 100.364 9.45526C101.291 19.3632 102.519 29.2072 103.926 39.0968C104.364 42.1755 105.002 45.0827 104.729 48.1728C103.907 48.3008 103.726 47.8963 103.56 47.3089C103.309 46.4152 102.74 44.0382 102.746 43.1926C102.751 42.4406 102.997 42.644 102.826 41.4715C102.439 38.7768 102.057 36.0753 101.139 33.4698L100.372 33.6937C100.396 33.344 100.188 33.0195 100.145 32.6789C99.6087 28.4529 99.7609 24.1286 98.6182 19.946L97.8093 5.16753C97.9695 5.00983 99.4218 5.99262 99.6061 6.15033H99.6087ZM90.008 4.70128C90.3337 4.94812 91.3456 8.24163 91.5325 8.8953C93.4094 15.4549 92.2266 21.5414 95.1955 28.1398C96.1086 30.1671 96.4824 31.1819 97.0243 33.3898C97.9374 37.1152 98.5034 40.9139 99.3471 44.6599C99.0587 44.9387 96.429 42.7126 96.2554 42.3721C95.1581 40.2373 94.1249 35.3302 93.5322 32.8527C93.2145 31.5202 93.1985 29.1889 92.6885 28.0918C92.4242 27.525 91.9917 27.5661 91.7087 27.1753C90.9264 26.0965 91.3883 24.7663 91.084 23.7606C90.9264 23.2395 90.1175 22.8053 89.9279 22.3367C89.0682 20.2249 89.143 17.1325 88.8066 14.9589C88.5877 13.5487 88.0644 12.1248 87.8455 10.7352C87.5571 8.89759 88.1445 7.01885 86.7882 5.28181C86.8523 5.02354 89.6449 4.42472 90.008 4.70128ZM88.342 29.3946L91.3963 37.9746C89.4233 37.9746 89.0362 38.6329 88.2166 39.9699C88.1765 40.0339 87.8615 40.0385 87.8161 40.2076C87.7173 40.5893 87.9122 41.9492 87.8134 42.0315C83.8567 42.0498 80.0869 42.7629 76.2397 43.4234C75.8099 43.4966 75.3773 43.3137 74.9422 43.3914C72.4405 43.8348 71.4981 45.5878 71.1697 41.6681C71.0736 40.5093 71.6342 38.6146 72.235 37.5815C72.4619 37.1929 73.9436 35.7965 74.4055 35.7188C77.7108 35.1634 81.6755 36.4501 84.655 37.6021C85.6535 37.9883 87.3702 39.2865 88.2646 38.6831C88.6197 38.3243 88.4809 37.8215 88.0884 37.5198C87.9362 37.4032 86.1261 36.6147 85.7416 36.4547C82.9757 35.3142 79.5903 34.3314 76.5387 34.128C77.636 33.2435 79.2619 32.4458 80.6289 31.8173C81.7502 31.3008 87.4904 28.8529 88.3447 29.3969L88.342 29.3946ZM58.6001 33.0469C60.2901 32.5852 61.7932 31.495 63.3684 30.8665C65.9261 29.8426 70.3554 28.6541 73.092 28.2221C75.2759 27.877 77.8977 27.9821 80.1243 27.5501C79.2913 28.2518 77.9297 28.8529 76.795 28.4278C76.6909 28.8278 77.2249 28.5672 77.305 28.6472C77.6627 29.0083 75.2038 29.7671 75.0196 29.87C72.2243 31.4585 68.1181 34.7154 66.9834 37.4901C66.7538 38.05 66.9754 38.5986 66.7778 39.1631C64.4604 38.9711 62.6556 40.4316 60.6452 41.1516C60.4743 39.5517 59.5266 37.8763 59.1661 36.3816C59.0967 36.0959 59.3156 35.7645 59.2462 35.4376C59.1661 35.0491 58.512 33.1475 58.5975 33.0492L58.6001 33.0469ZM61.5476 51.0115C62.2685 51.0115 64.391 54.8993 65.1732 55.5232L62.6289 58.8647C62.4794 58.995 61.8627 59.219 61.7025 59.1253C60.7894 57.3083 59.1047 55.9026 58.0768 54.1862C58.0021 53.5233 61.1018 51.0115 61.5449 51.0115H61.5476ZM59.3664 61.7788C59.7588 62.1057 57.2599 65.6323 56.6778 65.5066C56.3014 65.0975 55.9196 64.6838 55.5699 64.2587C54.9291 63.477 53.2738 61.0132 52.9 60.1789C52.342 58.9333 53.952 58.2088 54.6247 57.1734C55.2361 57.1506 57.4548 62.3982 59.369 61.7788H59.3664ZM57.3133 52.12H56.8033V51.9052H57.3133V52.12ZM50.652 20.09H50.903V20.5266H50.652V20.09ZM50.652 20.9677H50.903V21.4042H50.652V20.9677ZM50.652 22.0648C51.0258 22.1059 51.0045 23.0841 51.0338 23.379C51.5197 28.1444 51.9362 32.8869 52.1845 37.6432C51.6719 37.5586 51.7654 37.1792 51.6746 36.8753C51.4904 36.2559 51.3008 35.2982 51.1967 34.6514C50.6787 31.4562 50.6253 28.1695 50.3931 25.0269L50.652 22.067V22.0648ZM52.1845 37.8626V38.2992H51.9336V37.8626H52.1845ZM49.1142 22.0648H49.3652V22.5013H49.1142V22.0648ZM48.8579 23.1618C49.7149 23.6738 49.0875 25.1229 49.1142 25.9022C49.3091 31.3259 49.8591 37.6889 52.1178 42.6349C52.593 43.6748 51.768 45.3227 53.5942 45.341C56.1305 45.3684 53.2471 42.3652 53.0736 41.8167C52.7692 40.8476 53.1056 39.7162 52.1899 38.8431C52.3207 37.9335 53.2364 39.8945 53.3486 39.8465C55.2708 39.5105 54.1282 38.5917 53.8959 37.8215C53.6663 37.0535 52.7318 29.0792 53.3379 29.0837C54.2296 34.4503 55.8876 39.6911 57.2759 44.9479C56.8354 45.9833 54.9211 45.7387 54.299 46.0381C53.3646 46.4907 53.5061 46.5204 52.1899 46.9729C51.1566 47.3272 50.2222 47.7683 49.2263 48.1774C48.7191 48.2597 48.4921 47.2426 48.404 46.9135C46.9303 41.4098 47.8274 33.3052 48.348 27.6507C48.4815 26.1879 47.9902 24.6269 48.8579 23.1618ZM46.8635 23.3218C46.9356 22.8099 47.2186 21.8476 47.83 21.6236L47.3174 23.8178C46.6366 23.8818 46.7995 23.7858 46.8635 23.3218ZM43.4755 27.989H43.7265V28.4255H43.4755V27.989ZM43.2139 29.0837L42.445 32.1556C41.3343 31.6207 42.3409 29.5066 43.2139 29.0837ZM35.0843 60.1904C35.2925 59.7492 35.9012 59.4887 35.992 58.9904C36.1041 58.3756 35.4767 57.4728 35.5355 56.8489C35.9947 52.008 37.3403 47.1923 38.3094 42.3286C38.563 41.051 38.4215 39.7322 38.6778 38.4752C39.0676 36.5598 40.4399 33.6183 42.186 32.375C42.3355 34.8617 40.9178 37.1358 40.4159 39.5242C39.5883 43.4577 39.2305 48.9271 39.9407 52.8217C40.1169 53.7816 40.48 55.8341 41.9324 54.641C41.7215 54.0925 41.3744 53.5942 41.2756 53.0114C40.1035 46.0427 42.0098 37.4146 44.0549 30.5739C44.4874 29.1295 45.4272 26.4325 46.156 25.132C46.3509 24.7846 46.5966 24.3869 47.0531 24.2566C46.8128 25.2806 46.9783 26.3479 46.9169 27.3604C46.5458 33.5429 46.5218 38.7174 46.957 45.0302C47.0104 45.7958 46.642 46.6986 46.8155 47.6129C46.9223 48.1728 47.5897 48.7808 47.5764 49.1762C47.5604 49.6287 47.0317 49.5945 46.8876 49.7842C45.299 51.9097 45.5473 53.2925 44.6743 55.4615C43.9 57.3814 42.3382 58.2773 41.054 59.8224C39.2172 62.0348 38.256 64.7409 35.5248 66.3865C35.1296 66.1374 34.7398 60.908 35.0789 60.1926L35.0843 60.1904ZM209.603 81.0233C207.435 85.7225 204.109 90.513 200.045 94.4305C199.877 94.5951 199.709 94.7573 199.538 94.9173C199.519 94.9356 199.498 94.9539 199.479 94.9722C198.836 95.5733 198.174 96.1492 197.49 96.6978C197.455 96.7252 197.423 96.7503 197.389 96.7778C197.122 96.9903 196.855 97.2029 196.582 97.4086C196.337 97.5937 194.073 99.365 192.201 100.757C191.988 100.944 191.707 101.155 191.4 101.379C191.093 101.603 190.775 101.815 190.45 102.016C190.092 102.256 189.83 102.414 189.724 102.441C189.724 102.441 189.724 102.441 189.724 102.439C187.759 103.532 185.537 104.32 183.399 105.148C173.814 108.183 165.821 113.545 155.921 115.915C153.069 116.562 150.258 116.987 147.335 117.405C143.068 118.006 138.615 118.518 134.391 119.19C132.795 119.455 131.091 119.697 129.727 120.42C129.53 120.525 129.292 120.637 129.097 120.715C128.881 120.799 128.721 120.84 128.659 120.824C128.614 120.815 128.603 120.781 128.603 120.735C128.619 120.625 128.608 120.454 128.438 120.447C128.147 120.379 127.236 120.623 126.782 120.806C126.125 121.119 125.533 120.891 124.804 120.957C123.317 121.151 121.816 121.478 120.337 121.697C119.131 121.905 117.603 121.953 116.247 122.052C115.532 122.122 114.637 122.113 114.058 122.413C113.762 122.548 113.588 122.63 113.206 122.634C111.321 122.525 109.362 122.678 107.471 122.799C106.297 122.961 105.159 123.162 103.966 122.996H103.71C98.3245 123.837 93.081 122.689 87.6399 122.381C83.8514 122.246 80.1884 121.834 76.4026 121.389C74.9929 121.224 73.3536 121.172 72.0881 120.843C71.2898 120.584 70.7692 119.853 69.8535 119.679C69.0178 119.499 68.1314 119.393 67.3011 119.183C64.3029 118.406 61.0404 117.924 58.2317 116.893C57.7565 116.765 57.2919 116.795 56.8113 116.701C56.3414 116.621 55.9143 116.383 55.4898 116.187C54.4913 115.682 53.0148 115.748 51.9522 115.364C51.0792 114.841 49.7069 114.834 48.8259 114.601C48.372 114.448 48.3186 114.256 47.9795 114.109C47.1813 113.782 46.4471 113.501 45.6354 113.099C26.2711 106.139 6.82676 98.5788 7.54761 77.8121C7.34738 70.1829 11.3228 64.069 17.2925 58.0534C20.4963 54.8878 24.2341 52.12 27.4379 49.0253C28.2495 48.2277 29.0317 47.334 29.838 46.5341C30.0516 46.3329 30.2252 46.2004 30.3213 46.1958C30.4361 46.1844 30.4521 46.3421 30.396 46.6186C30.3693 46.7558 30.3239 46.9203 30.2866 47.0689C29.3548 50.5064 29.5096 54.0285 29.4082 57.5277C29.3228 61.8634 28.941 66.6357 30.914 70.7588C31.2931 71.4491 31.9766 71.7051 32.369 72.3839C32.7882 73.3141 33.2207 74.3175 32.8656 75.3597C32.5826 76.1436 32.4278 77.0876 31.7363 77.6978C31.1916 78.1412 30.3106 78.2875 29.6244 78.5801C28.8208 78.916 28.1133 79.38 27.275 79.6703C25.5263 80.2394 24.7627 80.0154 24.1246 81.6336C22.5467 83.9054 22.9899 83.6814 23.5773 86.0356C23.8096 87.1144 23.588 88.2115 23.7215 89.1257C23.8202 90.1565 24.3489 91.0958 24.7814 92.0626C25.617 93.786 25.5316 96.2018 27.849 96.9835C29.0398 97.3354 30.7111 97.3309 31.771 97.5777C32.0807 97.6509 32.3717 97.7697 32.604 97.9571C33.1246 98.364 33.4743 99.2165 33.995 99.7147C34.6464 100.348 35.6236 100.679 36.4993 101.084C37.2388 101.399 37.8662 101.671 38.4963 101.856C39.0917 102.035 39.671 102.115 40.1115 102.368C40.5307 102.592 40.8404 102.933 41.2462 103.173C41.919 103.575 42.784 103.685 43.4782 104.066C45.2483 105.013 46.0306 106.843 47.8781 107.689C48.7458 108.13 49.5948 108.148 50.5292 108.286C51.6292 108.434 52.5877 108.784 53.9253 109.291C56.1252 110.032 58.0208 111.211 60.146 112.068C61.5343 112.582 63.1762 113.174 64.7514 113.378C65.766 113.485 67.0315 113.211 68.078 113.442C69.8828 113.867 71.8745 115.06 73.9703 114.644C76.8538 113.979 76.6135 114.397 78.9202 115.698C80.2391 116.404 81.9398 116.287 83.5123 116.379C85.0635 116.404 86.6013 116.461 88.1258 116.329C89.7304 116.249 92.1092 115.474 93.6256 116.383C95.038 117.394 96.8188 118.911 98.8558 118.63C103.723 118.086 108.748 116.822 113.631 116.809C115.478 116.799 117.328 116.98 119.171 117.069C123.619 117.375 127.954 116.18 132.341 115.73C140.743 114.905 148.258 114.621 151.849 107.25C153.115 106.137 155.312 106.066 157.047 105.787C157.888 105.685 158.719 105.598 159.549 105.481C160.911 105.324 162 104.892 163.332 104.375C165.113 103.701 166.958 102.926 167.34 101.113C167.481 100.663 167.417 100.14 167.636 99.7147C167.839 99.3216 168.263 99.3628 168.704 99.525C169.369 99.781 170.042 100.156 170.736 100.364C171.82 100.672 173.053 100.855 174.166 101.015C174.93 101.143 175.71 101.024 176.468 101.047C176.858 101.077 177.13 101.161 177.49 101.216C177.915 101.299 178.617 101.246 179.09 101.267C181.404 101.321 183.906 101.84 186.149 101.111C187.689 100.65 189.339 99.9661 190.981 99.8427C191.08 99.8404 191.173 99.8382 191.261 99.8382C192.108 97.6029 191.71 95.6007 189.742 95.5641C190.557 95.267 191.619 94.5996 192.716 93.7905L191.638 92.7095C193.325 92.0924 195.069 91.5461 196.441 90.6456C196.988 90.1245 197.445 89.6514 197.762 89.2857L202.136 88.2023C203.158 87.0481 204.92 86.6275 205.406 85.0482C204.974 83.7546 205.134 82.3033 204.899 81.0348C204.768 80.3331 204.018 78.9297 203.988 78.5275C203.988 78.5001 203.996 78.4612 204.01 78.4178C203.999 78.3744 203.991 78.3332 203.988 78.3012C203.97 78.0338 204.763 77.0167 204.859 76.4773C204.859 76.4728 204.859 76.4636 204.859 76.4591C204.709 74.7632 201.821 67.9522 201.121 66.4985C200.702 65.63 200.112 64.3272 199.687 63.557C199.3 62.8576 198.716 62.2337 198.096 61.6783L198.198 61.5434C198.163 61.5114 198.131 61.4794 198.096 61.4497L199.097 60.1355C198.278 59.1093 197.992 57.8225 196.868 56.9746C194.471 55.1667 191.275 57.3265 188.618 56.3735C188.525 56.3392 187.225 55.2581 187.166 55.1872C186.25 54.1176 186.851 52.504 184.563 51.7132C180.267 50.2276 178.58 54.9953 176.003 56.7369C176.011 56.6592 176.011 56.5814 176.009 56.506C176.009 56.506 176.006 56.5083 176.003 56.5106C176.003 56.49 176.003 56.4694 176.006 56.4489C175.961 55.6786 175.475 55.0158 175.141 54.321C175.106 54.2502 175.117 54.1633 175.138 54.0787C175.096 53.9668 175.144 53.8273 175.181 53.7085C175.058 53.5896 174.166 53.2285 173.897 53.0137C172.047 51.528 171.9 51.2584 169.676 50.207C167.665 49.2562 166.039 45.7547 164.464 44.1297C161.295 40.859 156.57 39.3711 152.25 37.6912C150.616 37.0558 148.184 35.5108 146.79 35.1245C143.036 34.0846 138.647 34.8411 134.859 33.0515C133.606 32.4595 132.696 31.3213 131.212 30.6882C130.042 30.19 125.786 28.9192 124.614 28.9192C124.064 28.9192 121.464 29.5066 121.154 29.3123C121.176 29.2414 121.189 29.1706 121.202 29.0997C121.186 29.0952 121.165 29.0906 121.154 29.0837C121.205 28.9055 121.229 28.7249 121.234 28.5398C121.197 27.6438 120.791 26.7045 120.818 25.74C120.807 25.4657 120.826 25.1914 120.895 24.9149C124.283 24.6909 128.149 24.5766 131.529 24.9171C148.403 26.6268 164.576 30.2242 178.94 38.0866C190.597 44.4679 197.891 49.4985 205.719 59.4293C206.925 60.9606 208.169 62.4508 209.082 64.2838C209.299 64.7181 210.514 69.5566 210.54 70.0457C210.54 70.0892 210.538 70.1326 210.53 70.176C210.535 70.2172 210.54 70.2514 210.54 70.2743C210.556 70.5783 210.265 70.8205 210.22 71.0377C210.284 72.0273 210.604 74.8843 210.831 75.5014C210.97 75.8808 211.371 75.8557 211.36 75.9242C211.349 75.9859 211.336 76.0522 211.322 76.1208C211.347 76.1299 211.36 76.1391 211.36 76.1528C211.162 77.3939 210.18 79.8211 209.624 81.0279L209.603 81.0233Z" fill="#2B2727"/>
</g>
<defs>
<clipPath id="clip0_81_11">
<rect width="216" height="127" fill="white"/>
</clipPath>
</defs>
</svg>
